<?xml version="1.0" encoding="utf-8"?>
<!-- Generator: Adobe Illustrator 18.0.0, SVG Export Plug-In . SVG Version: 6.00 Build 0)  -->
<!DOCTYPE svg PUBLIC "-//W3C//DTD SVG 1.1//EN" "http://www.w3.org/Graphics/SVG/1.1/DTD/svg11.dtd">
<svg version="1.1" id="Layer_1" xmlns="http://www.w3.org/2000/svg" xmlns:xlink="http://www.w3.org/1999/xlink" x="0px" y="0px"
	 viewBox="0 0 11.9 11.9" enable-background="new 0 0 11.9 11.9" xml:space="preserve">
<path fill="#FFFFFF" d="M1.4,1.4c1.9-1.9,5-1.9,6.9,0C9.9,3,10.2,5.6,9,7.5C9,7.6,9,7.7,9,7.7L9.3,8c0.1,0.1,0.2,0.1,0.3,0l0.1-0.1
	c0.1-0.1,0.2-0.1,0.3,0l1.8,1.8c0,0,0.1,0.1,0.1,0.2s0,0.1-0.1,0.2l-1.8,1.8c-0.1,0.1-0.2,0.1-0.3,0L7.9,10c-0.1-0.1-0.1-0.2,0-0.3
	L8,9.6c0,0,0.1-0.1,0.1-0.2S8,9.4,8,9.3L7.7,9.1C7.7,9,7.6,9,7.5,9c-1.9,1.2-4.4,0.9-6-0.7C-0.5,6.4-0.5,3.3,1.4,1.4L1.4,1.4z
	 M2.4,2.4C1,3.7,1,6,2.4,7.4c1.4,1.4,3.6,1.4,5,0c1.4-1.4,1.4-3.6,0-5C6,1,3.8,1,2.4,2.4z"/>
</svg>
