<?xml version="1.0" encoding="utf-8"?>
<!-- Generator: Adobe Illustrator 18.0.0, SVG Export Plug-In . SVG Version: 6.00 Build 0)  -->
<!DOCTYPE svg PUBLIC "-//W3C//DTD SVG 1.1//EN" "http://www.w3.org/Graphics/SVG/1.1/DTD/svg11.dtd">
<svg version="1.1" id="Layer_1" xmlns="http://www.w3.org/2000/svg" xmlns:xlink="http://www.w3.org/1999/xlink" x="0px" y="0px"
	 viewBox="0 0 12.4 12" enable-background="new 0 0 12.4 12" xml:space="preserve">
<path fill-rule="evenodd" clip-rule="evenodd" fill="#00877c" d="M6.3,0.1l6.1,11.8c0,0,0,0.1,0,0.1c0,0-0.1,0.1-0.1,0.1H0.1
	C0.1,12,0,12,0,12c0,0,0-0.1,0-0.1L6.1,0.1C6.1,0,6.1,0,6.2,0C6.2,0,6.3,0,6.3,0.1L6.3,0.1z M6.2,8.8c0,0-0.1,0-0.1,0l-4.3,2.3
	c0,0-0.1,0.1-0.1,0.1c0,0.1,0.1,0.1,0.1,0.1h8.6c0.1,0,0.1,0,0.1-0.1c0-0.1,0-0.1-0.1-0.1L6.2,8.8z"/>
</svg>
