<?xml version="1.0" encoding="utf-8"?>
<!-- Generator: Adobe Illustrator 18.0.0, SVG Export Plug-In . SVG Version: 6.00 Build 0)  -->
<!DOCTYPE svg PUBLIC "-//W3C//DTD SVG 1.1//EN" "http://www.w3.org/Graphics/SVG/1.1/DTD/svg11.dtd">
<svg version="1.1" id="Layer_1" xmlns="http://www.w3.org/2000/svg" xmlns:xlink="http://www.w3.org/1999/xlink" x="0px" y="0px"
	 viewBox="0 0 12.2 12.2" enable-background="new 0 0 12.2 12.2" xml:space="preserve">
<path fill-rule="evenodd" clip-rule="evenodd" fill="#FFFFFF" d="M11.6,12.2H7.1c-0.3,0-0.6-0.3-0.6-0.6V7.1c0-0.3,0.3-0.6,0.6-0.6
	h4.4c0.3,0,0.6,0.3,0.6,0.6v4.4C12.2,11.9,11.9,12.2,11.6,12.2L11.6,12.2z M5,5.6H0.6C0.3,5.6,0,5.4,0,5V0.6C0,0.3,0.3,0,0.6,0H5
	c0.3,0,0.6,0.3,0.6,0.6V5C5.6,5.4,5.4,5.6,5,5.6L5,5.6z M4.7,5C4.9,5,5,4.9,5,4.7V0.9c0-0.2-0.1-0.3-0.3-0.3H0.9
	c-0.2,0-0.3,0.1-0.3,0.3v3.8C0.6,4.9,0.7,5,0.9,5H4.7L4.7,5z M5,12.2H0.6c-0.3,0-0.6-0.3-0.6-0.6V7.1c0-0.3,0.3-0.6,0.6-0.6H5
	c0.3,0,0.6,0.3,0.6,0.6v4.4C5.6,11.9,5.4,12.2,5,12.2L5,12.2z M11.6,5.6H7.1C6.8,5.6,6.5,5.4,6.5,5V0.6C6.5,0.3,6.8,0,7.1,0h4.4
	c0.3,0,0.6,0.3,0.6,0.6V5C12.2,5.4,11.9,5.6,11.6,5.6z"/>
</svg>
