<svg class="uil-default" height="50" preserveAspectRatio="xMidYMid" viewBox="0 0 100 100" width="50" xmlns="http://www.w3.org/2000/svg"><path class="bk" fill="none" d="M0 0h100v100H0z"/><rect height="20" rx="5" ry="5" transform="translate(0 -30)" width="7" x="46.5" y="40"><animate attributeName="opacity" begin="0s" dur="1s" from="1" repeatCount="indefinite" to="0"/></rect><rect height="20" rx="5" ry="5" transform="rotate(30 105.98 65)" width="7" x="46.5" y="40"><animate attributeName="opacity" begin="0.08333333333333333s" dur="1s" from="1" repeatCount="indefinite" to="0"/></rect><rect height="20" rx="5" ry="5" transform="rotate(60 75.98 65)" width="7" x="46.5" y="40"><animate attributeName="opacity" begin="0.16666666666666666s" dur="1s" from="1" repeatCount="indefinite" to="0"/></rect><rect height="20" rx="5" ry="5" transform="rotate(90 65 65)" width="7" x="46.5" y="40"><animate attributeName="opacity" begin="0.25s" dur="1s" from="1" repeatCount="indefinite" to="0"/></rect><rect height="20" rx="5" ry="5" transform="rotate(120 58.66 65)" width="7" x="46.5" y="40"><animate attributeName="opacity" begin="0.3333333333333333s" dur="1s" from="1" repeatCount="indefinite" to="0"/></rect><rect height="20" rx="5" ry="5" transform="rotate(150 54.02 65)" width="7" x="46.5" y="40"><animate attributeName="opacity" begin="0.4166666666666667s" dur="1s" from="1" repeatCount="indefinite" to="0"/></rect><rect height="20" rx="5" ry="5" transform="rotate(180 50 65)" width="7" x="46.5" y="40"><animate attributeName="opacity" begin="0.5s" dur="1s" from="1" repeatCount="indefinite" to="0"/></rect><rect height="20" rx="5" ry="5" transform="rotate(-150 45.98 65)" width="7" x="46.5" y="40"><animate attributeName="opacity" begin="0.5833333333333334s" dur="1s" from="1" repeatCount="indefinite" to="0"/></rect><rect height="20" rx="5" ry="5" transform="rotate(-120 41.34 65)" width="7" x="46.5" y="40"><animate attributeName="opacity" begin="0.6666666666666666s" dur="1s" from="1" repeatCount="indefinite" to="0"/></rect><rect height="20" rx="5" ry="5" transform="rotate(-90 35 65)" width="7" x="46.5" y="40"><animate attributeName="opacity" begin="0.75s" dur="1s" from="1" repeatCount="indefinite" to="0"/></rect><rect height="20" rx="5" ry="5" transform="rotate(-60 24.02 65)" width="7" x="46.5" y="40"><animate attributeName="opacity" begin="0.8333333333333334s" dur="1s" from="1" repeatCount="indefinite" to="0"/></rect><rect height="20" rx="5" ry="5" transform="rotate(-30 -5.98 65)" width="7" x="46.5" y="40"><animate attributeName="opacity" begin="0.9166666666666666s" dur="1s" from="1" repeatCount="indefinite" to="0"/></rect></svg>