<?xml version="1.0" encoding="utf-8"?>
<!-- Generator: Adobe Illustrator 18.0.0, SVG Export Plug-In . SVG Version: 6.00 Build 0)  -->
<!DOCTYPE svg PUBLIC "-//W3C//DTD SVG 1.1//EN" "http://www.w3.org/Graphics/SVG/1.1/DTD/svg11.dtd">
<svg version="1.1" id="Layer_1" xmlns="http://www.w3.org/2000/svg" xmlns:xlink="http://www.w3.org/1999/xlink" x="0px" y="0px"
	 viewBox="0 0 73.9 73.5" enable-background="new 0 0 73.9 73.5" xml:space="preserve">
<g>
	<path fill-rule="evenodd" clip-rule="evenodd" fill="#FFFFFF" d="M10.5,53.4C5,53.4,0.5,57.9,0.5,63.4C0.5,69,5,73.5,10.5,73.5
		c5.6,0,10.1-4.5,10.1-10.1C20.6,57.9,16.1,53.4,10.5,53.4z M35.1,37.5c-11.1-10.4-31-12.9-31-12.9c-2.2,0-4.1,1.6-4.1,3.8v7.1
		c0,2.2,1.8,3.8,4.1,3.8c0,0,12.8,0.3,20.4,7.5c10.1,9.4,9.9,22.4,9.9,22.4c0,2.2,1.1,4.1,3.3,4.1h7.9c2.2,0,2.8-1.8,2.8-4.1
		C48.3,69.2,46.4,48.2,35.1,37.5z M55,23.4C37.5,2.3,4.1,0,4.1,0C1.8,0,0,1.6,0,3.8v7.1c0,2.2,1.8,3.8,4.1,3.8
		c0,0,23.9,0.8,37.3,16.7c18.5,19,17.1,38,17.1,38c0,2.2,1.8,4.1,4.1,4.1h7.9c2.2,0,3.6-1.8,3.6-4.1C73.9,69.3,72.3,39.5,55,23.4z"
		/>
</g>
</svg>
