<?xml version="1.0" encoding="utf-8"?>
<!-- Generator: Adobe Illustrator 18.0.0, SVG Export Plug-In . SVG Version: 6.00 Build 0)  -->
<!DOCTYPE svg PUBLIC "-//W3C//DTD SVG 1.1//EN" "http://www.w3.org/Graphics/SVG/1.1/DTD/svg11.dtd">
<svg version="1.1" id="Layer_1" xmlns="http://www.w3.org/2000/svg" xmlns:xlink="http://www.w3.org/1999/xlink" x="0px" y="0px"
	 viewBox="0 0 21.5 21.5" enable-background="new 0 0 21.5 21.5" xml:space="preserve">
<g>
	<path fill="#00877c" d="M6.9,19.1c-0.3,0.3-0.8,0.3-1,0l-3.4-3.4c-0.3-0.3-0.3-0.8,0-1L13.4,3.7c0.3-0.3,0.8-0.3,1,0l3.4,3.4c0.3,0.3,0.3,0.8,0,1
		L6.9,19.1z M20.5,1c-2-2-3.9-0.4-3.9-0.4c-0.3,0.2-0.8,0.7-1.1,1c-0.3,0.3-0.3,0.7,0,1L19,6c0.3,0.3,0.7,0.3,1,0
		c0.3-0.3,0.7-0.8,1-1.1C21,4.9,22.5,3,20.5,1 M2.8,20.9c0.4-0.1,0.5-0.4,0.2-0.7l-1.8-1.8c-0.3-0.3-0.6-0.2-0.7,0.2L0,20.9
		c-0.1,0.4,0.1,0.6,0.5,0.5L2.8,20.9z"/>
</g>
</svg>
