<?xml version="1.0" encoding="utf-8"?>
<!-- Generator: Adobe Illustrator 18.0.0, SVG Export Plug-In . SVG Version: 6.00 Build 0)  -->
<!DOCTYPE svg PUBLIC "-//W3C//DTD SVG 1.1//EN" "http://www.w3.org/Graphics/SVG/1.1/DTD/svg11.dtd">
<svg version="1.1" id="Layer_1" xmlns="http://www.w3.org/2000/svg" xmlns:xlink="http://www.w3.org/1999/xlink" x="0px" y="0px"
	 viewBox="0 0 12.4 10.5" enable-background="new 0 0 12.4 10.5" xml:space="preserve">
<path fill-rule="evenodd" clip-rule="evenodd" fill="#00877c" d="M12.1,3c-1.6,0-4.9,0-6.4,0c0,0-0.1,0-0.1,0L4.2,4.2
	c0,0-0.1,0-0.1,0c-1.9,0-2,0-3.8,0C0.1,4.2,0,4.3,0,4.4v5.8c0,0.1,0.1,0.2,0.2,0.2h11.9c0.1,0,0.2-0.1,0.2-0.2c0-3.3,0-3.8,0-7.1
	C12.4,3.1,12.3,3,12.1,3L12.1,3z M12.1,2.1H5.3c0,0-0.1,0-0.1,0L3.8,3.3c0,0-0.1,0-0.1,0H0.2C0.1,3.4,0,3.3,0,3.2c0-1,0-2,0-3
	C0,0.1,0.1,0,0.2,0h3.4c0,0,0.1,0,0.1,0l1.4,1.2c0,0,0.1,0,0.1,0h6.8c0.1,0,0.2,0.1,0.2,0.2c0,0.2,0,0.3,0,0.5
	C12.4,2,12.3,2.1,12.1,2.1z"/>
</svg>
